<?xml version="1.0" encoding="utf-8"?>
<!-- Generator: Adobe Illustrator 16.0.0, SVG Export Plug-In . SVG Version: 6.00 Build 0)  -->
<!DOCTYPE svg PUBLIC "-//W3C//DTD SVG 1.1//EN" "http://www.w3.org/Graphics/SVG/1.1/DTD/svg11.dtd">
<svg version="1.1" id="Слой_1" xmlns="http://www.w3.org/2000/svg" xmlns:xlink="http://www.w3.org/1999/xlink" x="0px" y="0px"
	 width="566.93px" height="566.93px" viewBox="0 0 566.93 566.93" enable-background="new 0 0 566.93 566.93" xml:space="preserve">
<g>
	<path fill-rule="evenodd" clip-rule="evenodd" d="M239.047,485.467c-46.406,0-92.814,0.192-139.22-0.055
		c-50.333-0.266-87.357-31.261-93.171-79.679c-4.419-36.806,10.892-65.521,41.647-85.831c5.421-3.579,8.391-7.11,9.685-14.005
		c11.758-62.689,64.224-113.136,125.481-121.477c65.408-8.904,127.703,22.659,157.287,80.668c4.393,8.611,7.864,10.548,17.353,8.319
		c60.191-14.146,120.205,26.692,129.825,87.609c9.642,61.05-34.55,119.52-96.624,122.961c-50.611,2.805-101.498,0.569-152.26,0.569
		C239.047,484.854,239.047,485.159,239.047,485.467z"/>
	<path fill-rule="evenodd" clip-rule="evenodd" d="M472.185,291.848c-5.797-5.281-11.039-10.855-18.508-13.804
		c-6.681-2.636-2.083-8.621-1.406-12.646c8.173-48.4-19.641-93.979-66.558-107.912c-32.692-9.711-62.361-3.076-88.212,18.733
		c-6.729,5.674-10.94,8.062-17.976,0.885c-3.399-3.466-9.268-4.513-14.017-6.655c29.862-44.521,101.468-58.099,153.02-29.02
		C472.04,171.614,496.683,239.879,472.185,291.848z"/>
	<path fill-rule="evenodd" clip-rule="evenodd" fill="#050505" d="M537.943,262.387c-3.128-0.271-7.066-0.314-10.881-1.018
		c-6.284-1.156-10.033-5.097-10.521-11.554c-0.521-6.904,2.428-11.857,9.219-13.923c8.09-2.461,16.322-2.084,24.498-0.423
		c6.964,1.414,10.751,6.345,10.764,12.932c0.016,7.305-4.364,12.143-11.897,13.258C545.703,262.165,542.2,262.13,537.943,262.387z"
		/>
	<path fill-rule="evenodd" clip-rule="evenodd" fill="#040404" d="M372.457,72.12c-0.019,0.256,0.208,4.267-0.676,8.018
		c-1.578,6.692-6.174,10.464-13.158,10.395c-6.884-0.066-12.013-3.459-12.94-10.446c-0.909-6.835-1.037-13.881-0.56-20.77
		c0.551-8.016,5.709-13.307,13.56-13.125c8.381,0.19,13.281,5.732,13.754,14.44C372.576,63.237,372.457,65.854,372.457,72.12z"/>
	<path fill-rule="evenodd" clip-rule="evenodd" fill="#030303" d="M251.291,127.585c-0.015,8.015-8.212,15.195-15.974,12.731
		c-10.815-3.431-18.416-11.626-22.765-21.694c-3.537-8.185,3.687-17.07,12.389-17.104
		C233.471,101.488,251.306,119.13,251.291,127.585z"/>
	<path fill-rule="evenodd" clip-rule="evenodd" fill="#030303" d="M492.669,101.46c8.739,0.365,15.479,9.406,11.875,17.456
		c-4.313,9.639-11.715,17.285-21.717,21.081c-7.941,3.012-15.937-3.172-16.47-11.519
		C465.767,119.229,483.448,101.075,492.669,101.46z"/>
	<path fill-rule="evenodd" clip-rule="evenodd" fill="#FEFEFE" d="M239.438,457.438c-46.393,0-92.784,0.028-139.177-0.011
		c-34.182-0.025-58.85-18.398-65.642-48.781c-6.626-29.634,9.018-58.154,40-71.209c6.372-2.684,8.288-5.942,8.879-12.354
		c5.654-61.344,51.116-108.066,110.772-114.253c57.57-5.969,112.744,31.017,130.823,87.701c4.985,15.627,4.985,15.627,19.634,8.547
		c38.469-18.589,81.324-7.312,103.831,27.323c22.341,34.379,15.471,79.068-16.569,105.075c-14.277,11.59-30.678,18.048-49.439,18
		C334.847,457.356,287.141,457.438,239.438,457.438z"/>
</g>
</svg>
